<svg xmlns="http://www.w3.org/2000/svg" viewBox="0 0 1200 1500" width="1200" height="1500">
<defs>
<radialGradient id="bgGlow" cx="50%" cy="34%" r="72%">
<stop offset="0%" stop-color="#fdf9f3"/>
<stop offset="62%" stop-color="#f1e8dc"/>
<stop offset="100%" stop-color="#e6d9c8"/>
</radialGradient>
<linearGradient id="floor" x1="0" y1="0" x2="0" y2="1">
<stop offset="0%" stop-color="rgba(140,110,80,0.10)"/>
<stop offset="100%" stop-color="rgba(140,110,80,0.02)"/>
</linearGradient>
<filter id="soft" x="-20%" y="-20%" width="140%" height="140%">
<feGaussianBlur stdDeviation="26"/>
</filter>
<filter id="grain">
<feTurbulence type="fractalNoise" baseFrequency="0.9" numOctaves="3" result="n"/>
<feColorMatrix type="saturate" values="0" in="n" result="g"/>
<feComponentTransfer in="g" result="g2"><feFuncA type="linear" slope="0.06"/></feComponentTransfer>
<feComposite in="g2" in2="SourceGraphic" operator="over"/>
</filter>
</defs>
<rect width="1200" height="1500" fill="url(#bgGlow)"/>
<rect x="0" y="1110" width="1200" height="390" fill="url(#floor)"/>
<defs>
<linearGradient id="g" x1="0" y1="0" x2="1" y2="0.25">
<stop offset="0%" stop-color="#b1a086"/>
<stop offset="26%" stop-color="#d8c4a4"/>
<stop offset="48%" stop-color="#ddccb1"/>
<stop offset="72%" stop-color="#d8c4a4"/>
<stop offset="100%" stop-color="#a09179"/>
</linearGradient></defs>
<ellipse cx="600" cy="1330" rx="250" ry="30" fill="rgba(70, 48, 32, 0.16)" filter="url(#soft)"/>
<rect x="576" y="1080" width="48" height="250" rx="10" fill="#8a6a4c"/>
<ellipse cx="600" cy="1330" rx="150" ry="26" fill="#8a6a4c" opacity="0.85"/>
<path d="M 470 430 C 430 560, 442 760, 500 900 Q 600 950, 700 900 C 758 760, 770 560, 730 430 Q 600 372, 470 430 Z" fill="url(#g)"/>
<path d="M 470 430 Q 600 500, 730 430" fill="none" stroke="rgba(0,0,0,0.18)" stroke-width="6"/>
<path d="M 452 640 C 560 700, 640 700, 748 640" fill="none" stroke="#b0764f" stroke-width="26" stroke-linecap="round" opacity="0.95"/>
<path d="M 452 640 C 560 700, 640 700, 748 640" fill="none" stroke="rgba(255,255,255,0.55)" stroke-width="4" stroke-dasharray="10 14"/>
<g transform="translate(880 980) rotate(18)">
<path d="M0 0 L 120 -100 M0 0 L 120 100" stroke="#7d7d86" stroke-width="16" stroke-linecap="round"/>
<circle cx="-16" cy="-34" r="34" fill="none" stroke="#b0764f" stroke-width="16"/>
<circle cx="-16" cy="34" r="34" fill="none" stroke="#b0764f" stroke-width="16"/>
</g>
<g transform="translate(300 1000)">
<circle r="52" fill="#c89f84"/>
<line x1="0" y1="0" x2="76" y2="0" stroke="#6b5748" stroke-width="4"/><circle cx="76" cy="0" r="7" fill="#c9a24a"/><line x1="0" y1="0" x2="38.00000000000001" y2="65.81793068761733" stroke="#6b5748" stroke-width="4"/><circle cx="38.00000000000001" cy="65.81793068761733" r="7" fill="#c9a24a"/><line x1="0" y1="0" x2="-37.999999999999986" y2="65.81793068761735" stroke="#6b5748" stroke-width="4"/><circle cx="-37.999999999999986" cy="65.81793068761735" r="7" fill="#c9a24a"/><line x1="0" y1="0" x2="-76" y2="9.307315673519884e-15" stroke="#6b5748" stroke-width="4"/><circle cx="-76" cy="9.307315673519884e-15" r="7" fill="#c9a24a"/><line x1="0" y1="0" x2="-38.000000000000036" y2="-65.81793068761732" stroke="#6b5748" stroke-width="4"/><circle cx="-38.000000000000036" cy="-65.81793068761732" r="7" fill="#c9a24a"/><line x1="0" y1="0" x2="38.00000000000001" y2="-65.81793068761733" stroke="#6b5748" stroke-width="4"/><circle cx="38.00000000000001" cy="-65.81793068761733" r="7" fill="#c9a24a"/>
</g>
</svg>