<svg xmlns="http://www.w3.org/2000/svg" viewBox="0 0 1200 1500" width="1200" height="1500">
<defs>
<radialGradient id="bgGlow" cx="50%" cy="34%" r="72%">
<stop offset="0%" stop-color="#fdf9f3"/>
<stop offset="62%" stop-color="#f1e8dc"/>
<stop offset="100%" stop-color="#e6d9c8"/>
</radialGradient>
<linearGradient id="floor" x1="0" y1="0" x2="0" y2="1">
<stop offset="0%" stop-color="rgba(140,110,80,0.10)"/>
<stop offset="100%" stop-color="rgba(140,110,80,0.02)"/>
</linearGradient>
<filter id="soft" x="-20%" y="-20%" width="140%" height="140%">
<feGaussianBlur stdDeviation="26"/>
</filter>
<filter id="grain">
<feTurbulence type="fractalNoise" baseFrequency="0.9" numOctaves="3" result="n"/>
<feColorMatrix type="saturate" values="0" in="n" result="g"/>
<feComponentTransfer in="g" result="g2"><feFuncA type="linear" slope="0.06"/></feComponentTransfer>
<feComposite in="g2" in2="SourceGraphic" operator="over"/>
</filter>
</defs>
<rect width="1200" height="1500" fill="url(#bgGlow)"/>
<rect x="0" y="1110" width="1200" height="390" fill="url(#floor)"/>
<defs>
<linearGradient id="g" x1="0" y1="0" x2="1" y2="0.25">
<stop offset="0%" stop-color="#b1a086"/>
<stop offset="26%" stop-color="#d8c4a4"/>
<stop offset="48%" stop-color="#ddccb1"/>
<stop offset="72%" stop-color="#d8c4a4"/>
<stop offset="100%" stop-color="#a09179"/>
</linearGradient></defs>
<ellipse cx="600" cy="1270" rx="216.6" ry="32" fill="rgba(70, 48, 32, 0.16)" filter="url(#soft)"/>
<path d="M 482 338
C 410 438, 388 636, 396 834
L 476 840
C 474 636, 498 456, 542 408 Z" fill="url(#g)"/>
<path d="M 718 338
C 790 438, 812 636, 804 834
L 724 840
C 726 636, 702 456, 658 408 Z" fill="url(#g)"/><path d="
M 470 330
C 452 447, 460 618, 460 708
C 460 870, 372 1032, 372 1230
Q 600 1264, 828 1230
C 828 1032, 740 870, 740 708
C 740 618, 748 447, 730 330
Q 600 388, 470 330 Z" fill="url(#g)"/>
<path d="M 540 334 Q 600 390.6, 660 334 Q 600 349, 540 334 Z" fill="rgba(60,40,26,0.42)"/>
<path d="M 463.20000000000005 400 C 452.25600000000003 724, 474.14400000000006 983.1999999999999, 457.72800000000007 1210"
stroke="rgba(255,255,255,0.5)" stroke-width="10"
fill="none" opacity="0.13" stroke-linecap="round"/><path d="M 508.8 400 C 519.744 724, 497.856 983.1999999999999, 514.272 1210"
stroke="rgba(0,0,0,0.55)" stroke-width="14"
fill="none" opacity="0.13" stroke-linecap="round"/><path d="M 554.4000000000001 400 C 543.4560000000001 724, 565.344 983.1999999999999, 548.9280000000001 1210"
stroke="rgba(255,255,255,0.5)" stroke-width="10"
fill="none" opacity="0.13" stroke-linecap="round"/><path d="M 600 400 C 610.944 724, 589.056 983.1999999999999, 605.472 1210"
stroke="rgba(0,0,0,0.55)" stroke-width="14"
fill="none" opacity="0.13" stroke-linecap="round"/><path d="M 645.6 400 C 634.6560000000001 724, 656.544 983.1999999999999, 640.128 1210"
stroke="rgba(255,255,255,0.5)" stroke-width="10"
fill="none" opacity="0.13" stroke-linecap="round"/><path d="M 691.2 400 C 702.144 724, 680.2560000000001 983.1999999999999, 696.672 1210"
stroke="rgba(0,0,0,0.55)" stroke-width="14"
fill="none" opacity="0.13" stroke-linecap="round"/><path d="M 736.8 400 C 725.856 724, 747.7439999999999 983.1999999999999, 731.328 1210"
stroke="rgba(255,255,255,0.5)" stroke-width="10"
fill="none" opacity="0.13" stroke-linecap="round"/>
</svg>