<svg xmlns="http://www.w3.org/2000/svg" viewBox="0 0 1200 1500" width="1200" height="1500">
<defs>
<radialGradient id="bgGlow" cx="50%" cy="34%" r="72%">
<stop offset="0%" stop-color="#fdf9f3"/>
<stop offset="62%" stop-color="#efe4d6"/>
<stop offset="100%" stop-color="#e6d9c8"/>
</radialGradient>
<linearGradient id="floor" x1="0" y1="0" x2="0" y2="1">
<stop offset="0%" stop-color="rgba(140,110,80,0.10)"/>
<stop offset="100%" stop-color="rgba(140,110,80,0.02)"/>
</linearGradient>
<filter id="soft" x="-20%" y="-20%" width="140%" height="140%">
<feGaussianBlur stdDeviation="26"/>
</filter>
<filter id="grain">
<feTurbulence type="fractalNoise" baseFrequency="0.9" numOctaves="3" result="n"/>
<feColorMatrix type="saturate" values="0" in="n" result="g"/>
<feComponentTransfer in="g" result="g2"><feFuncA type="linear" slope="0.06"/></feComponentTransfer>
<feComposite in="g2" in2="SourceGraphic" operator="over"/>
</filter>
</defs>
<rect width="1200" height="1500" fill="url(#bgGlow)"/>
<rect x="0" y="1110" width="1200" height="390" fill="url(#floor)"/>
<defs>
<linearGradient id="g" x1="0" y1="0" x2="1" y2="0.25">
<stop offset="0%" stop-color="#194536"/>
<stop offset="26%" stop-color="#1f5442"/>
<stop offset="48%" stop-color="#5e8477"/>
<stop offset="72%" stop-color="#1f5442"/>
<stop offset="100%" stop-color="#173e31"/>
</linearGradient></defs>
<path d="M 600 120 C 600 190, 560 196, 560 232" fill="none" stroke="#9a7c5c" stroke-width="12" stroke-linecap="round"/>
<path d="M 600 118 m -26 0 a 26 26 0 1 1 52 0" fill="none" stroke="#9a7c5c" stroke-width="12"/>
<path d="M 600 236 L 380 300 Q 600 322, 820 300 Z" fill="#9a7c5c"/>
<g transform="translate(600 300) scale(0.82) translate(-600 -300)">
<path d="M 490 304 C 440 360, 436 430, 458 468 L 538 420 Z" fill="url(#g)"/>
<path d="M 710 304 C 760 360, 764 430, 742 468 L 662 420 Z" fill="url(#g)"/><path d="
M 484 300
C 472 435.85, 496 488.1, 496 592.6
C 496 780.7, 300 1115.1, 300 1345
Q 600 1379, 900 1345
C 900 1115.1, 704 780.7, 704 592.6
C 704 488.1, 728 435.85, 716 300
Q 600 358, 484 300 Z" fill="url(#g)"/>
<path d="M 542 304 Q 600 356.4, 658 304 Q 600 318, 542 304 Z" fill="rgba(60,40,26,0.42)"/>
<path d="M 432.85714285714283 360 C 418.8171428571428 742, 446.89714285714285 1047.6, 425.83714285714285 1315"
stroke="rgba(255,255,255,0.5)" stroke-width="10"
fill="none" opacity="0.13" stroke-linecap="round"/><path d="M 499.71428571428567 360 C 513.7542857142856 742, 485.67428571428565 1047.6, 506.73428571428565 1315"
stroke="rgba(0,0,0,0.55)" stroke-width="14"
fill="none" opacity="0.13" stroke-linecap="round"/><path d="M 566.5714285714286 360 C 552.5314285714286 742, 580.6114285714285 1047.6, 559.5514285714286 1315"
stroke="rgba(255,255,255,0.5)" stroke-width="10"
fill="none" opacity="0.13" stroke-linecap="round"/><path d="M 633.4285714285713 360 C 647.4685714285713 742, 619.3885714285714 1047.6, 640.4485714285713 1315"
stroke="rgba(0,0,0,0.55)" stroke-width="14"
fill="none" opacity="0.13" stroke-linecap="round"/><path d="M 700.2857142857142 360 C 686.2457142857143 742, 714.3257142857142 1047.6, 693.2657142857142 1315"
stroke="rgba(255,255,255,0.5)" stroke-width="10"
fill="none" opacity="0.13" stroke-linecap="round"/><path d="M 767.1428571428571 360 C 781.1828571428571 742, 753.1028571428571 1047.6, 774.1628571428571 1315"
stroke="rgba(0,0,0,0.55)" stroke-width="14"
fill="none" opacity="0.13" stroke-linecap="round"/>
</g>
</svg>